<svg id="Layer_1" data-name="Layer 1" xmlns="http://www.w3.org/2000/svg" viewBox="0 0 202.77 161.66"><defs><style>.cls-1{fill:#231f20;}.cls-2{fill:#dcb687;}.cls-3{fill:#fed19a;}.cls-4{fill:#60c9dd;}.cls-5{fill:#fbe9be;}.cls-6{fill:#87d0ce;}</style></defs><path class="cls-1" d="M248.05,279.53a.4.4,0,0,0,0,.15.68.68,0,0,1,0-.14Z" transform="translate(-146.84 -191.26)"/><path class="cls-2" d="M281.14,352.92l-.4,0c-8.21-.31-133.84-6.26-133.9-75a.17.17,0,0,0,0-.1A62.69,62.69,0,0,1,148,266.25h0a.57.57,0,0,1,0-.15c3.77-16.17,16.38-30.61,34.41-37a56.41,56.41,0,0,1,7-2,33.8,33.8,0,0,0-13.49,19.64.3.3,0,0,0,0,.1,41.13,41.13,0,0,0-.74,7.61.06.06,0,0,1,0,.06c0,45.86,84.62,49.42,88.57,49.57C268.8,318.3,274.57,334.49,281.14,352.92Z" transform="translate(-146.84 -191.26)"/><path class="cls-3" d="M282.94,351.34l-1.78,1.58h0c-6.57-18.43-12.34-34.62-17.42-48.84h.14s67.23-57.86,37.7-94.36l0-.05a42.21,42.21,0,0,0-5.36-5.45h0a.24.24,0,0,0-.08-.06,33.74,33.74,0,0,0-22.86-6.76,55,55,0,0,1,6.71-2.87c18-6.39,36.92-3.11,50,7.08a.35.35,0,0,1,.11.1h0A64.17,64.17,0,0,1,338.2,210a.22.22,0,0,0,.05.08C379.45,260.94,296.32,339.29,282.94,351.34Z" transform="translate(-146.84 -191.26)"/><path class="cls-4" d="M256,281.3h-.05c-2-.07-62.43-2.39-62.45-34.93v0A29.08,29.08,0,0,1,194,241s0-.05,0-.07a23.83,23.83,0,0,1,9.51-13.84,26.09,26.09,0,0,1,6.51-3.39c12.53-4.43,25.94,1.16,30,12.5-4-11.34,2.88-24.13,15.41-28.57a25.87,25.87,0,0,1,7.17-1.47,23.81,23.81,0,0,1,16.11,4.76s0,0,0,.05h0a29.65,29.65,0,0,1,3.78,3.84s0,0,0,0C303.33,240.53,256,281.3,256,281.3Z" transform="translate(-146.84 -191.26)"/><path class="cls-5" d="M228.76,202.41" transform="translate(-146.84 -191.26)"/><path class="cls-5" d="M284.74,361.34" transform="translate(-146.84 -191.26)"/><path class="cls-6" d="M286.53,365.43" transform="translate(-146.84 -191.26)"/></svg>